<svg width="51" height="42" viewBox="0 0 51 42" fill="none" xmlns="http://www.w3.org/2000/svg">
<g opacity="0.3">
<path d="M3.75868 25.866C2.79531 26.8108 1.84228 27.7632 0.928197 28.7558C0.69623 29.0078 1.10605 29.3459 1.33836 29.095C2.24176 28.1202 3.16549 27.1624 4.12989 26.2473C4.3784 26.0122 4.00409 25.6255 3.75868 25.866Z" fill="#0061A2"/>
<path d="M5.70332 25.7704C3.92238 26.9334 2.52404 28.5113 1.14189 30.1079C0.917158 30.3674 1.34145 30.6907 1.56411 30.4318C2.89352 28.8873 4.24638 27.359 5.96424 26.2344C6.24998 26.0475 5.99078 25.5826 5.70332 25.7704Z" fill="#0061A2"/>
<path d="M7.03455 25.8974C4.99786 27.7077 3.04217 29.5955 1.15473 31.5608C0.917588 31.8076 1.28535 32.1954 1.52111 31.9472C3.3927 29.9763 5.35218 28.0903 7.39094 26.2928C7.64807 26.066 7.29099 25.6696 7.03455 25.8974Z" fill="#0061A2"/>
<path d="M8.62551 25.7427C7.24267 27.1377 5.85777 28.5302 4.47493 29.9247C3.22203 31.188 1.9157 32.4054 1.00059 33.9475C0.825839 34.2418 1.27495 34.5283 1.44971 34.2332C2.33621 32.7373 3.60221 31.5558 4.81788 30.3311C6.20141 28.9379 7.58356 27.5433 8.96743 26.1508C9.20698 25.9096 8.86713 25.4987 8.62551 25.7427Z" fill="#0061A2"/>
<path d="M9.73515 26.6216C8.26649 28.0262 6.79403 29.4269 5.33019 30.8363C3.81948 32.2912 2.58312 33.9822 1.07137 35.4319C0.826654 35.6667 1.15065 36.091 1.39744 35.8528C2.85232 34.4486 4.04765 32.8193 5.49874 31.4106C7.02358 29.9302 8.57049 28.4718 10.1064 27.0028C10.3538 26.7667 9.98332 26.3845 9.73515 26.6216Z" fill="#0061A2"/>
<path d="M9.70128 28.6777C6.6416 31.3717 3.75287 34.2384 1.04406 37.2857C0.816574 37.5418 1.21846 37.891 1.44595 37.6345C4.14303 34.5941 7.02177 31.726 10.0815 29.05C10.3393 28.8249 9.95772 28.4516 9.70128 28.6777Z" fill="#0061A2"/>
<path d="M10.0671 30.2997C7.10948 33.0788 4.16182 35.869 1.2269 38.6722C0.978393 38.9094 1.37787 39.2613 1.62431 39.0266C4.54578 36.2433 7.4745 33.4679 10.4139 30.7036C10.6624 30.4699 10.3174 30.0646 10.0671 30.2997Z" fill="#0061A2"/>
<path d="M9.9577 32.3623C7.16686 34.8822 4.41532 37.4442 1.7265 40.0731C1.4842 40.3099 1.80647 40.7325 2.05291 40.4936C4.77309 37.8537 7.53153 35.2545 10.3513 32.7208C10.606 32.4922 10.2103 32.1345 9.9577 32.3623Z" fill="#0061A2"/>
<path d="M9.82683 34.5127C7.7343 36.5125 5.61696 38.4868 3.44723 40.4029C3.19044 40.6297 3.55339 41.0226 3.80879 40.7934C5.95233 38.8705 8.07795 36.9303 10.1529 34.9332C10.3973 34.6985 10.075 34.2755 9.82683 34.5127Z" fill="#0061A2"/>
<path d="M10.514 36.0377C9.05228 37.3916 7.58189 38.7362 6.12805 40.099C5.87816 40.3331 6.26212 40.7012 6.51236 40.4675C7.96 39.1139 9.40764 37.7597 10.876 36.4282C11.1293 36.1983 10.766 35.8043 10.514 36.0377Z" fill="#0061A2"/>
<path d="M10.5347 37.5256C9.72159 38.2501 8.90815 38.9743 8.09403 39.6974C7.83793 39.9249 8.2095 40.3075 8.46525 40.079C9.26076 39.3682 10.0583 38.6596 10.8556 37.9506C11.1103 37.7241 10.7908 37.2978 10.5347 37.5256Z" fill="#0061A2"/>
<path d="M23.6391 37.7698C20.4646 38.0949 17.2867 38.3885 14.1077 38.6698C13.7669 38.6998 13.872 39.2216 14.2101 39.192C17.389 38.9142 20.5656 38.6088 23.7407 38.292C24.0809 38.2586 23.9786 37.7354 23.6391 37.7698Z" fill="#0061A2"/>
<path d="M23.3368 36.3426C20.2592 36.4677 17.2926 37.409 14.217 37.5548C13.8744 37.571 13.9261 38.1004 14.2677 38.0846C17.3305 37.9429 20.2837 36.9971 23.3482 36.8747C23.6901 36.8609 23.6798 36.3284 23.3368 36.3426Z" fill="#0061A2"/>
<path d="M23.5412 34.4571C20.2927 35.0254 17.0534 35.6441 13.8159 36.2728C13.4819 36.3376 13.5422 36.8684 13.8789 36.8016C17.1013 36.1622 20.3326 35.5707 23.5657 34.9889C23.8973 34.9289 23.879 34.3981 23.5412 34.4571Z" fill="#0061A2"/>
<path d="M23.5002 32.6271C20.3006 33.2475 17.0996 33.8611 13.9007 34.4867C13.5643 34.5525 13.7138 35.0623 14.0482 34.9982C17.2426 34.3864 20.4347 33.7611 23.6281 33.1438C23.9648 33.0787 23.8359 32.562 23.5002 32.6271Z" fill="#0061A2"/>
<path d="M23.116 30.7038C20.0636 31.3276 17.0115 31.9539 13.9597 32.5809C13.624 32.6498 13.7595 33.1644 14.0945 33.0958C17.149 32.4713 20.2032 31.845 23.257 31.217C23.5934 31.1477 23.4497 30.6355 23.116 30.7038Z" fill="#0061A2"/>
<path d="M23.2424 28.3073C20.1783 28.9939 17.1289 29.7446 14.0979 30.5663C13.7673 30.6559 13.9459 31.1567 14.2754 31.0681C17.2782 30.2633 20.2934 29.5157 23.3262 28.8329C23.6588 28.7581 23.5782 28.2321 23.2424 28.3073Z" fill="#0061A2"/>
<path d="M23.0885 26.356C20.1319 27.1063 17.148 27.725 14.138 28.2162C13.8022 28.271 13.8436 28.8015 14.1828 28.7467C17.2169 28.2551 20.2236 27.6306 23.2033 26.8758C23.5342 26.792 23.4218 26.2712 23.0885 26.356Z" fill="#0061A2"/>
<path d="M23.3978 23.6321C20.2075 24.4876 17.0096 25.3159 13.8159 26.1596C13.4836 26.2475 13.6442 26.7549 13.9744 26.6677C17.1602 25.8287 20.3423 24.9753 23.5312 24.1474C23.8635 24.0612 23.7287 23.5435 23.3978 23.6321Z" fill="#0061A2"/>
<path d="M23.4747 22.1814C23.3496 21.6616 14.691 23.7459 13.8076 23.9351C13.4733 24.0068 13.5736 24.5311 13.9096 24.4576C16.128 23.9734 18.3484 23.497 20.577 23.0627C21.1537 22.9504 21.731 22.8404 22.3094 22.736C22.5031 22.7008 23.2124 22.6877 23.3558 22.5381C23.4785 22.4099 23.5185 22.3634 23.4747 22.1814Z" fill="#0061A2"/>
<path d="M23.5193 19.8766C20.4327 20.7717 17.3068 21.3491 14.1048 21.6289C13.7635 21.6586 13.8773 22.177 14.2144 22.1497C17.3016 21.9019 20.3496 21.3373 23.3255 20.4822C23.3614 20.485 23.3996 20.4801 23.4403 20.4656C23.5227 20.436 23.6051 20.4067 23.6871 20.3771C23.9687 20.2764 23.8095 19.7925 23.5193 19.8766Z" fill="#0061A2"/>
<path d="M23.07 18.2144C20.1885 18.8713 17.3073 19.5145 14.3552 19.7513C14.0133 19.7785 14.0519 20.3097 14.3934 20.2821C17.3859 20.0412 20.3108 19.398 23.2299 18.7221C23.5639 18.6449 23.4022 18.1385 23.07 18.2144Z" fill="#0061A2"/>
<path d="M43.0872 40.3714C42.281 39.3608 41.2346 38.6214 40.1654 37.9138C39.8838 37.7273 39.5405 38.1316 39.8262 38.324C40.7886 38.972 41.7533 39.6237 42.5092 40.511C42.5178 40.5244 42.522 40.5385 42.5337 40.5513C42.574 40.5957 42.615 40.6399 42.6564 40.6833C42.8828 40.9253 43.3068 40.6468 43.0872 40.3714Z" fill="#0061A2"/>
<path d="M45.1708 40.2793C44.6124 39.4255 43.6932 39.1091 42.8849 38.5532C41.9508 37.9103 41.2625 36.9797 40.3953 36.2545C40.3778 36.229 40.3557 36.2045 40.326 36.1835C40.2919 36.1594 40.2578 36.1352 40.224 36.1111C39.9442 35.9129 39.6391 36.33 39.91 36.5409C40.7738 37.2137 41.4345 38.102 42.2948 38.7765C43.029 39.3521 43.9713 39.6613 44.5742 40.3796C44.5576 40.4641 44.5824 40.553 44.681 40.6126C44.761 40.6612 44.8203 40.696 44.9154 40.7008C45.1477 40.7126 45.3049 40.4844 45.1708 40.2793Z" fill="#0061A2"/>
<path d="M47.8311 39.5118C46.2735 38.6322 44.9144 37.7257 43.5547 36.5621C42.4403 35.6087 41.3298 34.6688 40.0431 33.9525C39.7474 33.7878 39.431 34.2152 39.7295 34.3827C41.1888 35.2013 42.4128 36.2967 43.6836 37.371C44.892 38.3927 46.1483 39.1747 47.5229 39.9461C47.819 40.1123 48.1299 39.6807 47.8311 39.5118Z" fill="#0061A2"/>
<path d="M48.7859 38.2676C48.4171 37.741 47.7019 37.3849 47.189 37.0113C46.4352 36.4622 45.6818 35.9128 44.928 35.3637C43.4827 34.3111 42.0665 33.2105 40.5037 32.3347C40.2045 32.1668 39.9522 32.6377 40.2518 32.8038C41.7387 33.6283 43.0847 34.6768 44.4561 35.6753C45.0672 36.12 45.6773 36.566 46.2884 37.0103C46.5442 37.196 46.8003 37.3822 47.0557 37.5683C47.2614 37.7189 47.4675 37.8692 47.6733 38.0198C47.8412 38.1811 48.039 38.2611 48.2658 38.2632C48.1472 38.3742 48.1155 38.581 48.2982 38.6799C48.3299 38.6971 48.3613 38.714 48.393 38.7312C48.5043 38.7916 48.6291 38.7371 48.7094 38.6571C48.7318 38.6347 48.7542 38.6127 48.7766 38.5903C48.8597 38.5082 48.8476 38.3559 48.7859 38.2676Z" fill="#0061A2"/>
<path d="M48.6987 35.3648C47.4151 33.9581 45.9313 33.4153 44.3399 32.4433C42.9871 31.6167 41.7562 30.5696 40.5854 29.5066C40.3314 29.276 39.9832 29.6783 40.2366 29.9085C41.5787 31.1287 43.0191 32.3761 44.6343 33.2219C45.8513 33.8596 46.9326 34.3993 47.9066 35.3179C47.8288 35.4441 47.8387 35.6147 48.019 35.6729C48.1607 35.7188 48.3023 35.7643 48.4436 35.8101C48.707 35.8952 48.8648 35.5471 48.6987 35.3648Z" fill="#0061A2"/>
<path d="M49.1648 33.7214C46.3595 31.3255 43.3766 29.1782 40.2346 27.2466C39.9423 27.067 39.6786 27.532 39.9712 27.7091C43.0988 29.6049 46.0503 31.7629 48.8315 34.1364C49.0924 34.359 49.4257 33.944 49.1648 33.7214Z" fill="#0061A2"/>
<path d="M48.6655 30.7377C47.6522 29.6992 46.3969 29.1546 45.104 28.5435C43.3661 27.7225 41.8954 26.5788 40.4243 25.3604C40.1607 25.1419 39.8735 25.5889 40.1334 25.8061C41.2674 26.7543 42.4228 27.7028 43.7136 28.4332C45.1126 29.2249 46.6926 29.6906 47.9138 30.7525C47.901 30.8491 47.9396 30.949 48.0555 31.0038C48.154 31.0503 48.2523 31.0969 48.3508 31.1434C48.5766 31.2506 48.853 30.93 48.6655 30.7377Z" fill="#0061A2"/>
<path d="M48.9658 29.2655C47.7074 27.9512 46.3053 26.9137 44.7329 26.0076C43.1181 25.0769 41.8428 23.741 40.502 22.465C40.2535 22.2282 39.8892 22.618 40.138 22.8534C41.3933 24.0405 42.5928 25.3544 44.0859 26.2468C45.5525 27.1236 46.9012 28.0157 48.1238 29.1797C48.0728 29.3106 48.1062 29.4826 48.2751 29.5471C48.4019 29.5953 48.5288 29.6439 48.6556 29.6922C48.9252 29.7949 49.1875 29.4971 48.9658 29.2655Z" fill="#0061A2"/>
<path d="M49.3324 26.7741C48.3425 25.5971 47.0024 25.0694 45.6461 24.4141C43.9706 23.6048 42.6205 22.4122 41.1863 21.2493C40.9233 21.0359 40.5435 21.4065 40.8089 21.6246C42.0025 22.6046 43.1761 23.6858 44.5296 24.4427C45.9177 25.2189 47.4635 25.6684 48.6086 26.7821C48.5975 26.86 48.6223 26.9406 48.7133 26.9989C48.8067 27.0588 48.9005 27.1192 48.9939 27.1791C49.2534 27.346 49.5233 27.0013 49.3324 26.7741Z" fill="#0061A2"/>
<path d="M49.837 24.8095C48.5082 23.73 47.2426 22.6956 45.7322 21.8749C44.003 20.935 42.3709 19.8544 40.7596 18.7269C40.479 18.5308 40.2357 19.0044 40.5125 19.1985C41.9808 20.2277 43.4684 21.2272 45.0363 22.1007C46.4609 22.8945 47.7021 23.7827 48.9563 24.7802C48.9605 24.8436 48.9932 24.9053 49.0673 24.9515C49.2283 25.0518 49.3885 25.1535 49.5481 25.2565C49.8432 25.4454 50.0969 25.0208 49.837 24.8095Z" fill="#0061A2"/>
<path d="M49.8888 22.3676C49.8106 22.2549 49.732 22.1418 49.6534 22.0291C49.5745 21.9153 49.4521 21.8933 49.3477 21.9253C48.8351 21.4748 48.3881 20.9578 47.839 20.5459C47.2076 20.0723 46.4651 19.8283 45.7575 19.496C43.9452 18.645 42.3083 17.4769 40.6853 16.3171C40.4099 16.1203 40.0483 16.5111 40.3268 16.7104C41.8623 17.8095 43.4051 18.9166 45.0978 19.7652C45.966 20.2006 46.9301 20.487 47.6939 21.1043C48.3319 21.62 48.8193 22.259 49.5014 22.7257C49.7395 22.8887 50.0694 22.6274 49.8888 22.3676Z" fill="#0061A2"/>
<path d="M49.882 20.0156C49.8665 19.9963 49.8492 19.9818 49.833 19.9635C49.8337 19.9629 49.8344 19.9625 49.8351 19.9618C49.8316 19.9594 49.8282 19.957 49.8248 19.9546C49.3264 19.3924 48.6849 19.2645 48.0452 18.8588C47.2273 18.3398 46.4573 17.718 45.6656 17.1599C43.8967 15.9132 42.1471 14.6548 40.129 13.8386C39.8147 13.7114 39.5534 14.176 39.8705 14.3039C41.7163 15.0488 43.3293 16.1631 44.9479 17.3044C45.7035 17.8369 46.4618 18.3656 47.21 18.9085C47.6991 19.2632 48.5253 19.5872 49.0765 19.9853C49.0854 20.0518 49.1209 20.1159 49.1916 20.1638L49.4832 20.3613C49.7055 20.5112 50.0912 20.2717 49.882 20.0156Z" fill="#0061A2"/>
<path d="M49.6919 17.2625C48.4845 16.7821 47.6535 15.4602 46.5002 14.8257C44.7182 13.845 42.8973 13.0154 41.1918 11.8883C40.9057 11.6994 40.6417 12.164 40.9281 12.3505C42.443 13.3373 44.0099 14.1839 45.6309 14.9818C46.5474 15.433 47.2857 15.9931 48.0398 16.6683C48.4979 17.0785 48.9612 17.5486 49.544 17.7733C49.524 17.7227 49.504 17.6724 49.484 17.6217C49.5716 17.6648 49.6588 17.7075 49.7463 17.7506C49.9625 17.631 49.8983 17.3446 49.6919 17.2625Z" fill="#0061A2"/>
<path d="M50.1018 14.7854C49.0437 14.2215 48.0059 13.6235 46.9936 12.9803C46.6154 12.7401 46.2484 12.4723 45.872 12.2224C45.9392 12.0649 45.8599 11.8367 45.6348 11.8367C45.537 11.8367 45.4715 11.8818 45.4308 11.9435C45.0906 11.7433 44.7369 11.5709 44.3544 11.4603C44.0262 11.3655 43.8563 11.8694 44.1858 11.9653C45.2871 12.2844 46.2677 13.1616 47.2376 13.76C48.0135 14.2384 48.8065 14.6868 49.6079 15.1208C49.6441 15.1797 49.702 15.2269 49.7837 15.2466C49.8261 15.2569 49.8688 15.2673 49.9112 15.2776C50.2018 15.3479 50.371 14.9291 50.1018 14.7854Z" fill="#0061A2"/>
<path d="M30.7404 37.2569C30.7304 36.9577 30.2196 36.9632 30.2127 37.2655C30.2109 37.3334 30.2113 37.401 30.2109 37.4689C30.2096 37.8112 30.7438 37.8198 30.7431 37.4761C30.7431 37.4031 30.7431 37.3303 30.7404 37.2569Z" fill="#0061A2"/>
<path d="M31.2062 35.11L31.2717 35.1565C31.2499 35.1283 31.2231 35.1076 31.191 35.0938C31.1538 35.0742 31.119 35.0642 31.0769 35.0597C30.9766 35.049 30.8715 35.0931 30.8129 35.1765C30.7029 35.3334 30.7647 35.5398 30.9353 35.6222C31.0611 35.6829 31.171 35.637 31.2393 35.5536C31.2703 35.5305 31.2972 35.5033 31.3151 35.4702C31.3882 35.3337 31.3268 35.1893 31.2062 35.11Z" fill="#0061A2"/>
<path d="M33.9543 36.8948C33.8034 36.9072 33.7079 37.0378 33.711 37.1819C33.7114 37.2005 33.7117 37.2188 33.712 37.2374C33.7179 37.5338 34.2339 37.5435 34.2394 37.2433C34.2401 37.2085 34.2408 37.1736 34.2415 37.1385C34.2439 36.9944 34.0874 36.8838 33.9543 36.8948Z" fill="#0061A2"/>
<path d="M33.6873 33.3042C33.5011 33.3352 33.3919 33.4462 33.3629 33.6327C33.3181 33.9215 33.71 33.9991 33.8475 33.7992C34.0667 33.6727 33.984 33.2549 33.6873 33.3042Z" fill="#0061A2"/>
<path d="M31.0731 34.0032C31.0538 34.0225 31.0345 34.0418 31.0152 34.0608C30.7681 34.2955 31.1686 34.6726 31.4057 34.4223C31.4261 34.402 31.446 34.382 31.4664 34.3617C31.7128 34.1269 31.3106 33.753 31.0731 34.0032Z" fill="#0061A2"/>
<path d="M33.1561 31.7942C33.0465 31.7952 32.9299 31.7745 32.8314 31.8304C32.7407 31.8817 32.6849 31.9837 32.6969 32.0896C32.7228 32.3188 32.9427 32.3239 33.1216 32.3253C33.4642 32.3284 33.4973 31.7907 33.1561 31.7942Z" fill="#0061A2"/>
<path d="M30.8254 31.2002C30.7706 31.1819 30.7158 31.1643 30.661 31.1474C30.3774 31.0602 30.2057 31.5441 30.4883 31.6458C30.5445 31.6662 30.6007 31.6858 30.6572 31.7051C30.9816 31.8158 31.1511 31.308 30.8254 31.2002Z" fill="#0061A2"/>
<path d="M30.8429 27.9825C30.501 27.9825 30.5679 28.5109 30.9067 28.5109C31.2483 28.5109 31.1817 27.9825 30.8429 27.9825Z" fill="#0061A2"/>
<path d="M33.5313 27.6804C33.5313 27.7166 33.5316 27.7528 33.533 27.789C33.5395 28.0875 34.0552 28.0954 34.0607 27.7938C34.0617 27.7479 34.0628 27.7018 34.0628 27.6559C34.0659 27.314 33.5288 27.3378 33.5313 27.6804Z" fill="#0061A2"/>
<path d="M35.0762 30.0372C35.0472 30.0075 35.0183 29.9779 34.989 29.9483C34.8883 29.8455 34.6991 29.8814 34.6143 29.9841C34.5161 30.103 34.5471 30.2578 34.6501 30.3588C34.6667 30.375 34.6832 30.3912 34.6994 30.4074C34.9131 30.6162 35.2878 30.2533 35.0762 30.0372Z" fill="#0061A2"/>
<path d="M31.5687 29.4474C31.2302 29.4474 31.1661 29.9765 31.5091 29.9765C31.8479 29.9765 31.9116 29.4474 31.5687 29.4474Z" fill="#0061A2"/>
<path d="M32.461 36.9823L32.4334 36.982C32.0901 36.9785 32.0822 37.5159 32.4248 37.5141L32.4858 37.5138C32.8298 37.5121 32.8019 36.9857 32.461 36.9823Z" fill="#0061A2"/>
<path d="M34.957 35.3003C34.8454 35.3154 34.7554 35.373 34.6851 35.4598C34.4793 35.7149 34.8502 36.0244 35.0701 35.8176C35.3858 35.7532 35.2886 35.2551 34.957 35.3003Z" fill="#0061A2"/>
<path d="M32.3931 38.9877L32.3576 39.0235C32.1153 39.2683 32.5058 39.6178 32.7508 39.382C32.7536 39.3792 32.7567 39.3765 32.7595 39.3737C33.0066 39.1362 32.6347 38.744 32.3931 38.9877Z" fill="#0061A2"/>
</g>
<path d="M11.1085 25.62C11.0861 25.1137 10.608 24.8893 10.231 24.9703C7.2702 24.9121 4.32356 24.9893 1.37624 25.3002C1.0102 25.3388 0.851294 25.5993 0.854052 25.8778C0.692744 25.9899 0.574867 26.1687 0.567628 26.4152C0.435618 31.0477 0.497655 35.6929 0.746856 40.3209C0.75892 40.5425 0.855779 40.6921 0.991236 40.7793C1.11325 40.9062 1.28387 40.9916 1.49826 40.992C4.21741 40.9992 6.849 40.4122 9.56711 40.669C9.76806 40.688 9.9204 40.6277 10.0279 40.5256C10.3309 40.9792 11.244 40.8145 11.2588 40.1072C11.3615 35.2803 11.3205 30.4431 11.1085 25.62ZM2.04457 39.6495C1.86154 35.2931 1.80433 30.9429 1.89429 26.5827C4.52382 26.34 7.15989 26.2167 9.80046 26.2856C9.94936 30.683 10.0014 35.077 9.93729 39.4768C9.84354 39.4051 9.72808 39.3534 9.58607 39.3389C7.0534 39.0756 4.57138 39.5416 2.04457 39.6495Z" fill="#0061A2"/>
<path d="M24.628 18.5271C24.6035 18.1356 24.5942 17.7316 24.6211 17.337C24.6204 17.2904 24.6211 17.2443 24.6207 17.1977C24.4694 17.2005 24.3181 17.2029 24.1668 17.2032C23.9948 17.1181 23.7756 17.1195 23.5826 17.1977C20.3671 17.1367 17.1882 16.5611 13.9727 17.0981C13.6763 17.1477 13.518 17.3432 13.4705 17.5682C13.3075 17.6944 13.194 17.8895 13.2037 18.1452C13.4829 25.6144 13.517 33.0802 13.4684 40.5535C13.4674 40.6993 13.5063 40.8141 13.5684 40.9037C13.6504 41.1977 13.9041 41.4355 14.2908 41.36C17.458 40.741 20.6814 41.1098 23.8811 41.0322C24.3877 41.0198 24.5273 40.5535 24.3822 40.1785C24.4188 32.9619 24.4649 25.7444 24.4605 18.5278C24.5166 18.5275 24.5725 18.5271 24.628 18.5271ZM23.0604 39.7218C20.2989 39.7414 17.5408 39.5325 14.8016 39.9282C14.9467 32.7403 14.7978 25.5379 14.5352 18.3548C17.3808 17.8971 20.264 18.3727 23.1328 18.4996C23.0742 25.5731 23.0732 32.6483 23.0604 39.7218Z" fill="#0061A2"/>
<path d="M37.0411 25.3287C37.039 24.7424 36.4258 24.6394 36.0356 24.9006C33.6498 24.5436 31.2736 24.6797 28.8798 24.8782C28.651 24.8231 28.4 24.8744 28.2398 25.0378C28.004 25.2264 27.9502 25.57 28.0609 25.8413C27.9795 28.3778 27.9006 30.9143 27.8144 33.4507C27.7355 35.7659 27.527 38.1422 27.7448 40.4529C27.7758 40.7814 27.9847 40.9423 28.2263 40.9706C28.3625 41.1167 28.5576 41.2132 28.8005 41.1943C31.1568 41.0095 33.7784 40.4374 36.1239 40.8038C36.3658 40.8417 36.5489 40.7576 36.6698 40.6183C36.8808 40.5366 37.0435 40.3512 37.0421 40.052C37.0445 35.1441 37.0586 30.2363 37.0411 25.3287ZM29.0294 39.8404C28.8884 37.5879 29.0884 35.2999 29.1556 33.0482C29.2242 30.756 29.3034 28.4643 29.3793 26.1722C31.4963 26.0012 33.6081 25.8926 35.7185 26.199C35.7023 30.6044 35.7109 35.0101 35.7123 39.4154C33.5364 39.2103 31.2043 39.6077 29.0294 39.8404Z" fill="#0061A2"/>
<path d="M49.8372 10.958C46.7658 11.0493 43.7089 11.2593 40.6434 11.4592C40.2597 11.1679 39.4973 11.4857 39.5501 12.1365C40.3108 21.4993 39.7089 30.8063 39.0416 40.1523C38.8331 40.4615 38.8521 40.9061 39.1926 41.076C39.4211 41.3149 39.8141 41.3762 40.0739 41.2125C42.7862 41.5238 45.8411 42.0797 48.4182 41.0705C48.8018 41.2528 49.4078 41.0426 49.4381 40.4721C49.9324 31.1586 50.2357 21.8302 50.4707 12.507C50.4752 12.3364 50.4239 12.1971 50.3415 12.0879C50.6693 11.7115 50.4887 10.9384 49.8372 10.958ZM48.1421 39.7435C45.8404 40.7872 42.8972 40.185 40.3948 39.9076C41.0904 30.8949 41.7222 21.7899 40.9329 12.7662C43.6696 12.5642 46.4132 12.3581 49.1575 12.3012C49.152 12.3347 49.1455 12.3674 49.1448 12.4043C48.9142 21.5224 48.5468 30.6326 48.1421 39.7435Z" fill="#0061A2"/>
<path d="M46.4801 0.0626977C46.4397 0.0654551 46.3991 0.0695895 46.3556 0.0802745C44.8077 0.46011 43.2439 0.725521 41.6591 0.894068C41.2813 0.934051 41.1231 1.21255 41.1369 1.50242C40.9863 1.7599 40.9711 2.11216 41.2334 2.37894C41.6084 2.7605 41.9772 3.14758 42.3474 3.53396C37.8249 6.55369 33.3303 9.61477 28.8568 12.7058C27.6914 11.7725 26.3703 11.1286 25.0209 10.482C24.0827 10.0322 23.1372 9.57307 22.2973 8.95334C21.5479 8.40013 21.0378 7.80349 20.062 7.74248C19.8104 7.72663 19.6288 7.83244 19.5164 7.98858C13.8737 11.1245 8.28205 14.3596 2.78998 17.7526C2.05858 18.2045 2.85581 19.262 3.58101 18.8232C9.07652 15.4981 14.6048 12.2361 20.2182 9.11293C20.8634 9.29905 21.531 10.0618 22.0318 10.3879C22.613 10.7667 23.2358 11.0886 23.8566 11.3971C25.3363 12.1327 26.8432 12.7655 28.1219 13.8226C28.2939 14.1607 28.7496 14.3924 29.157 14.1101C33.8349 10.8684 38.5446 7.67251 43.2753 4.50802C43.6999 4.95886 44.1242 5.41038 44.5447 5.8657C44.5874 5.91189 44.6316 5.94671 44.6764 5.97635C44.9442 6.40479 45.7214 6.31448 45.8976 5.75197C46.4097 4.11543 46.9178 2.47751 47.4307 0.84098C47.6254 0.217802 46.9337 -0.155484 46.4801 0.0626977Z" fill="#0061A2"/>
</svg>
