<svg width="30" height="30" viewBox="0 0 30 30" fill="none" xmlns="http://www.w3.org/2000/svg">
<path fill-rule="evenodd" clip-rule="evenodd" d="M24.1299 9.22911C23.4081 8.5903 22.3673 8.5903 21.6456 9.22911C21.0949 9.71648 20.3296 10.429 19.3494 11.4218C18.839 11.9388 18.4035 12.3968 18.0354 12.7959C17.0009 12.7904 15.8333 12.7874 14.5157 12.7874H1.25C1.07741 12.7874 0.9375 12.9273 0.9375 13.0999V16.8995C0.9375 17.0721 1.07741 17.212 1.25 17.212H14.5157C15.8332 17.212 17.0007 17.2089 18.0352 17.2035C18.4034 17.6026 18.8389 18.0607 19.3494 18.5778C20.3296 19.5705 21.0949 20.2831 21.6456 20.7705C22.3673 21.4093 23.4081 21.4093 24.1299 20.7705C24.6804 20.2831 25.4458 19.5705 26.4259 18.5778C27.4061 17.585 28.1096 16.8099 28.5908 16.2522C29.2194 15.5237 29.2194 14.4759 28.5908 13.7473C28.1096 13.1897 27.4061 12.4145 26.4259 11.4218C25.4458 10.429 24.6804 9.71648 24.1299 9.22911Z" fill="#0061A2"/>
</svg>
