<svg width="41" height="50" viewBox="0 0 41 50" fill="none" xmlns="http://www.w3.org/2000/svg">
<g opacity="0.3">
<path d="M38.6802 38.0205C36.5476 39.8373 33.9993 41.0979 31.293 41.7233C31.2227 41.7151 31.1543 41.7287 31.1014 41.7683C29.7822 42.0577 28.4277 42.198 27.0654 42.1743C26.9853 42.1727 26.9065 42.1669 26.8269 42.1642C26.7057 41.9956 26.4341 41.9594 26.337 42.1436C25.5648 42.0935 24.8069 41.9866 24.0626 41.8313C24.0141 41.8064 23.9597 41.7951 23.903 41.7971C21.3757 41.2443 19.0119 40.1252 16.8214 38.6999C16.8132 38.4886 16.5992 38.3876 16.4271 38.4381C16.1579 38.2567 15.8907 38.0729 15.6269 37.8834C14.862 37.3337 14.1123 36.7518 13.3878 36.1408C13.389 36.1388 13.3898 36.1365 13.3909 36.1345C13.5452 35.8483 13.1788 35.6311 12.952 35.7729C12.6692 35.5251 12.3911 35.2718 12.1195 35.0127C12.1242 34.8616 11.9832 34.7516 11.8344 34.733C11.5594 34.4622 11.289 34.1876 11.0291 33.9044C11.0027 33.8512 10.9611 33.8089 10.913 33.7762C10.5983 33.4282 10.2922 33.0735 10.0052 32.7049C10.0083 32.6963 10.0118 32.6878 10.0153 32.6788C10.0914 32.4784 9.896 32.3199 9.71187 32.3114C8.9101 31.2217 8.23534 30.0435 7.74744 28.7566C7.75055 28.7418 7.75444 28.7275 7.75754 28.7127C7.78784 28.5655 7.71676 28.4602 7.6146 28.407C7.52525 28.149 7.44213 27.8876 7.36755 27.6211C7.17837 26.9433 7.03774 26.258 6.93791 25.5685C6.95966 25.4932 6.98296 25.4182 7.00472 25.3428C7.04706 25.1956 6.97753 25.0958 6.87304 25.0492C6.75417 24.0081 6.72426 22.9589 6.77398 21.9104C6.80272 21.8192 6.83147 21.7283 6.85983 21.637C6.89479 21.5251 6.86371 21.4268 6.80622 21.3503C6.96277 19.1998 7.42812 17.061 8.06441 15.0165C8.17823 14.651 7.62391 14.4233 7.50776 14.7928C7.24089 15.6415 7.00433 16.5082 6.80544 17.3861C6.67453 17.3053 6.50244 17.3138 6.42514 17.496C4.70234 21.5639 3.19552 25.7235 1.93342 29.9573C1.83747 30.279 2.40345 30.4538 2.50328 30.1278C3.67487 26.3016 5.00766 22.5409 6.5172 18.8377C6.34628 19.8237 6.23053 20.8193 6.18003 21.8157C4.65146 26.6671 3.13608 31.5224 1.60168 36.3719C1.48398 36.7436 2.06083 36.8687 2.18553 36.5102C2.22515 36.3964 2.26478 36.2825 2.30441 36.1687C2.31218 36.1458 2.31022 36.1264 2.31294 36.1054C3.59329 32.0115 4.8849 27.9214 6.17069 23.829C6.19633 24.4008 6.24916 24.9703 6.32724 25.5367C5.01815 30.0113 3.5995 34.4498 2.06044 38.851C1.93458 39.2115 2.47026 39.4803 2.59845 39.1163C4.02525 35.0632 5.34406 30.9727 6.55877 26.8508C6.69628 27.4828 6.86993 28.1087 7.08552 28.7263C7.09601 28.7566 7.10883 28.7853 7.11971 28.8156C6.66289 30.9386 5.87431 32.9391 5.04534 34.942C4.64717 35.9038 4.2393 36.8621 3.86949 37.8356C3.72499 38.2167 3.26931 40.2188 2.98496 40.6892C2.95389 40.6911 2.92399 40.6954 2.89446 40.709C2.78764 40.7405 2.70451 40.8279 2.71228 40.9755C2.71461 41.0186 2.71654 41.0621 2.71887 41.1052C2.72897 41.2991 2.96671 41.4176 3.13336 41.3414C3.71449 41.0765 3.7448 40.0098 3.91805 39.4823C4.32088 38.2547 4.80995 37.0579 5.306 35.8661C6.13924 33.8648 6.96392 31.8705 7.50698 29.7763C7.70276 30.218 7.92069 30.6457 8.15648 31.0609C6.63684 35.2924 5.10399 39.5196 3.59095 43.7533C3.47675 44.0734 3.99573 44.277 4.14412 43.972C4.21327 43.8295 4.28281 43.6873 4.35196 43.5447C4.38731 43.4717 4.38924 43.4061 4.37059 43.3497C5.77292 39.4764 7.15933 35.5977 8.55544 31.7221C8.79512 32.0989 9.05461 32.4621 9.32303 32.8183C7.8267 36.7126 6.32142 40.603 4.79751 44.4864C4.74934 44.5163 4.70738 44.5598 4.67825 44.6208C4.5621 44.8655 4.54928 44.9335 4.53063 45.2174C4.50655 45.5783 5.00146 45.604 5.11877 45.306C6.68503 41.334 8.23068 37.3535 9.75071 33.3637C9.96203 33.6232 10.1823 33.8761 10.4072 34.1251C8.81996 38.0559 7.40211 42.0507 6.19245 46.114C6.11671 46.1579 6.05805 46.2313 6.04989 46.3432C6.04173 46.4554 6.03318 46.5677 6.02502 46.68C6.00171 47.0005 6.49818 47.1737 6.60073 46.8303C7.83525 42.6921 9.24144 38.6145 10.8563 34.6091C11.0474 34.8087 11.2486 34.9991 11.4471 35.1922C10.1508 38.9462 8.94816 42.7348 7.84844 46.551C7.7424 46.9185 8.29556 47.1469 8.40472 46.7759C9.50133 43.0421 10.6756 39.3362 11.9222 35.6501C12.1595 35.8696 12.4008 36.0852 12.6455 36.2973C11.9047 37.8682 11.5197 39.6796 10.9957 41.3169C10.3691 43.2752 9.74644 45.2349 9.12025 47.1935C8.97069 47.2075 8.8324 47.3178 8.85415 47.5101C8.87163 47.6651 8.88912 47.8201 8.9066 47.9747C8.9404 48.2734 9.39566 48.3033 9.48461 48.0244C10.1151 46.0421 10.749 44.061 11.3814 42.0795C11.9346 40.3462 12.3437 38.3724 13.1175 36.6935C13.2981 36.8439 13.4822 36.9892 13.6656 37.136C13.6594 37.15 13.6497 37.1589 13.645 37.1748C13.3626 38.1549 10.7149 47.8535 10.4014 47.8011C10.0215 47.7377 9.9593 48.3422 10.3415 48.3981C10.394 48.4059 10.4468 48.4133 10.4993 48.421C10.6057 48.4366 10.7021 48.3632 10.7627 48.2855C11.1674 47.7677 11.2797 46.9853 11.4809 46.3634C11.8115 45.3429 12.137 44.3209 12.4528 43.2961C13.0437 41.3803 13.6197 39.4597 14.1624 37.5299C14.3764 37.6958 14.5921 37.8589 14.8092 38.0201C14.1783 41.3535 12.6164 44.4005 11.7571 47.6678C11.7097 47.6973 11.6685 47.7412 11.6472 47.8143C11.5392 48.1864 11.545 48.1285 11.5792 48.4956C11.6064 48.7877 12.0908 48.827 12.158 48.538C12.9632 45.0764 14.6157 41.8845 15.3387 38.4035C15.6148 38.6001 15.8949 38.7912 16.1766 38.9788C15.5861 42.5732 14.364 45.999 13.112 49.4081C12.9967 49.722 13.5417 49.931 13.6687 49.6171C13.7794 49.3444 13.8897 49.0713 13.9993 48.7978C14.0195 48.7481 14.0237 48.7011 14.0195 48.6572C15.1289 45.6071 16.1614 42.5386 16.7216 39.3354C16.9554 39.4842 17.192 39.6287 17.4297 39.7701C17.138 42.8576 15.7873 45.9431 14.8554 48.8887C14.7397 49.2543 15.2971 49.4761 15.4144 49.1067C16.3413 46.1835 17.6492 43.1707 17.9977 40.1003C18.2618 40.2491 18.5287 40.3913 18.7971 40.5303C18.794 40.5548 18.7874 40.5769 18.7905 40.6045C18.9494 42.0531 18.186 43.953 17.8201 45.3534C17.5404 46.4236 17.2568 47.4926 16.9706 48.5613C16.9476 48.5826 16.9247 48.604 16.9073 48.6351C16.7826 48.8577 16.7981 48.9338 16.8835 49.1781C16.9706 49.4268 17.3749 49.3751 17.4379 49.137C17.8838 47.4487 18.3333 45.7617 18.773 44.0719C19.048 43.0145 19.4392 41.933 19.4015 40.8325C19.8016 41.0256 20.2072 41.2055 20.6166 41.3737C19.8556 43.8357 19.0601 46.2857 18.2307 48.726C18.1235 49.0422 18.6468 49.2714 18.7796 48.9555C18.8317 48.8316 18.8837 48.7081 18.9358 48.5842C18.9575 48.5329 18.9614 48.4844 18.9575 48.4385C19.7294 46.1676 20.4678 43.8858 21.1721 41.5931C21.5835 41.7485 22.0003 41.8868 22.4206 42.0146C22.3282 42.0294 22.2419 42.0814 22.1976 42.1937C21.7544 43.3163 21.4934 44.4766 21.1966 45.644C20.8944 46.833 20.3159 47.9281 20.0386 49.1148C19.9869 49.3351 20.2406 49.6268 20.4674 49.4636C20.6885 49.3048 20.7285 49.2807 20.8143 49.0305C20.852 48.9202 20.824 48.8231 20.7689 48.7473C21.0163 47.9914 21.3714 47.2627 21.5905 46.4958C21.982 45.125 22.2287 43.7269 22.7617 42.3976C22.811 42.2741 22.7733 42.1716 22.7011 42.1012C22.9862 42.1832 23.2744 42.2558 23.5638 42.3238C23.2911 44.3772 22.9699 46.4224 22.5892 48.4583C22.5511 48.4921 22.5177 48.5345 22.5006 48.5962C22.407 48.9346 22.4082 48.8798 22.4606 49.2189C22.5123 49.5534 22.9912 49.5759 23.0553 49.2345C23.4788 46.9818 23.8494 44.7233 24.1504 42.4512C24.3897 42.499 24.6313 42.5386 24.8733 42.5763C24.4942 44.5093 24.0599 46.4286 23.5739 48.3375C23.5149 48.456 23.4978 48.5551 23.4582 48.8006C23.405 49.1292 23.9484 49.2768 24.0354 48.9439C24.0424 48.9179 24.0486 48.8915 24.0552 48.8654C24.1112 48.7163 24.1675 48.5667 24.2234 48.4175C24.2895 48.3158 24.2836 48.2101 24.2436 48.1208C24.7016 46.3106 25.1114 44.4895 25.4688 42.656C25.7209 42.6863 25.975 42.7092 26.2298 42.7286C25.9649 44.5749 25.6075 46.3972 25.1293 48.2012C25.0089 48.2524 24.918 48.3608 24.9596 48.5053L25.0272 48.7403C25.1072 49.0185 25.5255 49.0542 25.6071 48.7536C26.1412 46.7817 26.558 44.7866 26.8296 42.7624C27.0871 42.7725 27.3462 42.776 27.6069 42.7729C27.457 44.8305 27.1535 46.8571 26.6952 48.8681C26.6117 49.2345 27.1516 49.4473 27.2608 49.0686C27.3082 48.9035 27.356 48.7384 27.4033 48.5733C27.4212 48.5108 27.4146 48.4587 27.3987 48.4121C27.7953 46.5529 28.0696 44.6798 28.2086 42.7806C28.2094 42.7694 28.2051 42.7616 28.2047 42.7511C28.5578 42.734 28.9082 42.7026 29.2578 42.6653C29.2524 42.6859 29.2431 42.7033 29.2415 42.7278C29.165 44.2793 28.6775 45.7096 28.3908 47.1935C28.3858 47.1997 28.3811 47.2056 28.376 47.2118C28.3791 47.2141 28.3826 47.2164 28.3858 47.2188C28.378 47.2584 28.369 47.298 28.3617 47.338C28.4075 47.3256 28.4537 47.3128 28.4996 47.3003C28.6211 47.387 28.7427 47.474 28.8639 47.5606C28.8678 47.5563 28.8721 47.5521 28.876 47.5474C28.9137 47.507 28.9342 47.4643 28.9436 47.4215C29.2225 46.9057 29.3149 46.1373 29.4482 45.583C29.6692 44.6623 29.7819 43.7258 29.8386 42.7818C29.8428 42.7084 29.8203 42.6513 29.7877 42.6027C30.1835 42.5484 30.5759 42.48 30.9655 42.4C30.8163 43.8753 30.4255 45.2897 30.011 46.7161C29.9034 47.0871 30.4889 47.2094 30.598 46.8408C31.042 45.3382 31.4569 43.8291 31.5781 42.2632C31.9984 42.1618 32.4129 42.0403 32.8239 41.9093C32.5469 43.2484 32.212 44.5703 31.8057 45.8774C31.6911 46.2453 32.2552 46.4508 32.3698 46.081C32.8188 44.6359 33.1917 43.173 33.4827 41.6879C33.8509 41.5551 34.2134 41.4063 34.5723 41.2501C34.5494 41.841 34.4802 42.4237 34.333 43.0009C34.2274 43.4162 34.0895 43.8225 33.9193 44.216C33.8086 44.4716 33.607 44.7078 33.6012 44.9917C33.5984 45.1215 33.6439 45.2606 33.7783 45.3114C33.9325 45.3701 34.0316 45.3604 34.1714 45.2691C34.2759 45.2011 34.3295 45.0384 34.2794 44.9218C34.2713 44.9032 34.2615 44.8857 34.2514 44.8682C34.3202 44.7047 34.4325 44.5349 34.4872 44.4075C34.6434 44.0443 34.7743 43.6687 34.878 43.2872C35.0843 42.5282 35.1674 41.7586 35.1744 40.9755C35.5543 40.7937 35.9272 40.596 36.2951 40.3885C36.2465 41.4222 35.9917 42.3972 35.5174 43.3218C35.3411 43.6656 35.8903 43.9099 36.0651 43.5665C36.5853 42.5445 36.8661 41.4603 36.8995 40.3136C36.9027 40.2141 36.8638 40.1372 36.8055 40.0832C37.5972 39.6023 38.3605 39.0674 39.0799 38.4649C39.3767 38.219 38.9747 37.7696 38.6802 38.0205Z" fill="#0061A2"/>
<path d="M10.189 5.91833C10.2123 5.80102 10.1684 5.70701 10.0923 5.64719C9.58885 4.32178 8.75054 3.13543 7.61275 2.17866C7.44028 2.03338 7.24762 2.13749 7.17498 2.29831C7.00095 2.23926 6.77331 2.32278 6.77059 2.56052C6.76282 3.19642 6.7395 3.83194 6.69405 4.46667C6.6824 4.62672 6.67114 6.11839 6.55538 6.1988C6.53168 6.21511 6.51265 6.23376 6.49556 6.25318L6.49167 6.24813C6.38407 6.36545 6.37125 6.55696 6.49283 6.67233L6.55149 6.72788C6.65948 6.83043 6.89334 6.80829 6.97297 6.67854C7.27752 6.18248 7.22004 5.39004 7.26704 4.819C7.32337 4.13299 7.35056 3.44581 7.36532 2.75785C7.64229 3.00025 7.89712 3.25896 8.13407 3.52972C8.13446 3.53826 8.13059 3.54525 8.13175 3.55419C8.33724 5.09636 8.25644 6.60357 7.82564 8.10496C7.71998 8.47321 8.27895 8.69386 8.38461 8.32249C8.74937 7.03903 8.89584 5.74547 8.81582 4.4321C9.12309 4.90796 9.37558 5.41373 9.57059 5.94281C9.27031 7.08137 9.06404 8.22576 8.9949 9.40473C8.97236 9.79124 9.56669 9.75745 9.59427 9.37754C9.64865 8.62277 9.75083 7.87771 9.90038 7.14042C10.0022 7.66678 10.0534 8.20945 10.0461 8.76417C10.041 9.14641 10.6369 9.21245 10.6427 8.82515C10.6571 7.81206 10.5009 6.83431 10.189 5.91833Z" fill="#0061A2"/>
<path d="M6.12399 3.38914C6.16594 3.01118 5.58831 2.87055 5.53898 3.25629C5.43915 4.04058 5.34824 4.82604 5.25191 5.61073C5.23054 5.78592 5.39176 5.99763 5.58754 5.94985C5.61356 5.94363 5.63959 5.93703 5.66561 5.93081C5.80973 5.89585 5.88587 5.80301 5.91539 5.66278C5.91889 5.64569 5.92278 5.62821 5.92628 5.61111C5.94492 5.52255 5.92357 5.45107 5.88239 5.3963C5.96474 4.72738 6.04979 4.05884 6.12399 3.38914Z" fill="#0061A2"/>
<path d="M12.4439 12.8457C12.4214 12.7529 12.3985 12.6596 12.3759 12.5668C12.3266 12.3644 12.1316 12.3046 11.9766 12.3485C11.2793 11.3983 11.6453 9.68095 11.6744 8.57813C11.6845 8.19511 11.0886 8.12985 11.0777 8.51714C11.0754 8.60143 11.0696 8.69233 11.0649 8.78129C11.0035 8.79566 10.9445 8.8279 10.8987 8.8955C10.3078 9.76331 9.70569 10.6233 9.11485 11.4912C8.89653 11.8116 9.41785 12.1014 9.63655 11.7879C10.0942 11.1314 10.544 10.4699 10.9973 9.8107C10.986 9.99211 10.9763 10.1755 10.9717 10.3592C10.6563 10.7543 10.3661 11.1672 10.1202 11.6093C10.0137 11.8004 9.8036 12.0921 9.72397 12.3508C9.71037 12.3671 9.69676 12.3819 9.682 12.4021C9.60353 12.5081 9.64821 12.6779 9.73328 12.7641C9.83506 12.8675 9.94498 12.8791 10.0817 12.8492C10.1773 12.8282 10.2655 12.7237 10.286 12.62C10.4939 12.1667 10.7324 11.7347 11.0078 11.3237C11.0975 12.0878 11.3636 12.7785 12.0279 13.2089C12.2656 13.3635 12.4979 13.0667 12.4439 12.8457Z" fill="#0061A2"/>
</g>
<path d="M36.0739 21.6965C31.1914 15.7411 23.521 13.3167 16.0094 12.4411C16.4095 11.4199 16.1636 9.92082 15.8093 9.02232C15.3622 7.88842 14.3441 7.57688 13.2358 7.57882C13.2401 7.56289 13.2463 7.54929 13.2498 7.53259C13.7136 5.18204 14.7962 3.15313 16.5229 1.48588C17.0182 1.00769 16.6752 0.280888 16.0525 0.186494C13.3123 -0.229543 10.5485 0.0532526 7.94504 1.0073C6.22884 1.63621 2.22734 3.28366 2.35941 5.50718C2.38 5.85096 2.63444 6.11667 2.95841 6.19786C4.88554 6.67993 7.1992 7.28514 7.91474 9.37271C7.57134 9.79263 7.36 10.3093 7.37826 10.9456C7.40934 12.0255 8.14082 12.7581 9.05291 13.1151C6.39742 15.0574 4.62372 18.0497 3.27695 21.0171C1.45198 25.038 0.396545 29.5254 0.508032 33.9546C0.597377 37.4989 1.47178 41.1535 3.58771 44.0533C5.94836 47.288 9.63169 48.8593 13.4875 49.5018C21.2757 50.7996 31.158 49.7955 36.8477 43.6889C42.384 37.7475 40.9005 27.5839 36.0739 21.6965ZM13.9467 9.15556C14.3169 9.35484 15.2472 11.9389 14.4315 12.043C14.2648 12.0643 14.1401 12.1408 14.0516 12.2469C13.0734 12.1657 12.1023 12.1063 11.1451 12.0678C11.1245 12.067 11.1067 12.0705 11.0873 12.0709C10.9525 11.9303 10.7586 11.8425 10.5077 11.8639C9.31939 11.966 8.47294 10.5062 9.71056 9.79185C10.2781 9.46439 11.0228 9.36572 11.6606 9.27171C12.138 9.20179 13.4642 8.8953 13.9467 9.15556ZM4.08027 4.94353C4.63149 4.29791 6.04975 3.55868 6.40985 3.35785C7.39458 2.80896 8.44614 2.36185 9.53149 2.05419C11.1482 1.59581 12.7961 1.43266 14.4513 1.52706C13.2576 2.98144 12.4095 4.65452 11.9488 6.49852C11.8506 6.62127 11.7861 6.7786 11.783 6.97166C11.7814 7.08703 11.7799 7.20201 11.7779 7.31739C11.776 7.46461 11.8172 7.59241 11.8855 7.70002C11.5173 7.75789 11.1603 7.82821 10.8332 7.8923C10.2832 7.9999 9.68453 8.1782 9.14147 8.44469C8.19713 6.41228 6.19658 5.53087 4.08027 4.94353ZM17.5387 48.4339C13.8196 48.2327 9.68571 47.6329 6.70897 45.2024C4.2345 43.1816 2.8776 40.1575 2.32133 37.0689C1.66756 33.4395 2.05098 29.6758 3.0159 26.1373C4.27217 21.531 6.7109 15.8782 11.1475 13.5634C11.1579 13.5642 11.1665 13.5669 11.177 13.5673C18.5367 13.8213 26.6026 15.2897 32.4205 20.1329C38.0014 24.7793 41.0061 33.7693 37.3411 40.4958C33.7311 47.121 24.3818 48.8038 17.5387 48.4339Z" fill="#0061A2"/>
<path d="M22.4644 23.4878L24.682 22.1385L25.3723 23.2731L23.0688 24.6747C23.4468 25.5282 23.5942 26.2865 23.5109 26.9496C23.439 27.6058 23.13 28.2335 22.5839 28.8327C22.0492 29.425 21.2375 30.0524 20.1487 30.7149L20.9751 32.0729C21.9164 33.62 23.0633 33.9822 24.4156 33.1593C25.745 32.3505 25.9564 31.2011 25.0499 29.7113L26.4939 28.8327C27.1797 29.9857 27.4025 31.0357 27.1622 31.9828C26.9219 32.9298 26.2517 33.7381 25.1515 34.4075C24.0169 35.0978 22.9599 35.3092 21.9805 35.0415C21.0125 34.7668 20.1833 34.0622 19.493 32.9276L18.0181 30.5038C19.3246 29.7088 20.2629 29.083 20.8329 28.6262C21.4074 28.151 21.7543 27.6887 21.8734 27.2393C21.9856 26.7785 21.897 26.22 21.6076 25.5638L16.0208 28.9632L15.3305 27.8286L20.9861 24.3874L19.8564 22.5308L14.2008 25.9721L13.5 24.8203L22.8515 19.1302L23.5523 20.282L21.3348 21.6313L22.4644 23.4878Z" fill="#0061A2"/>
</svg>
