<svg width="580" height="317" viewBox="0 0 580 317" fill="none" xmlns="http://www.w3.org/2000/svg">
<path d="M33.9517 301.828C18.8551 285.37 8.77604 268.484 3.99424 251.641C-0.457606 235.959 -0.236809 220.741 4.65082 206.41C9.9981 190.729 20.9601 176.595 36.3518 165.533C51.6919 154.51 71.1851 146.714 92.7243 142.99L92.8975 143.992C71.509 147.691 52.1611 155.425 36.9453 166.36C21.7263 177.297 10.8921 191.259 5.61328 206.738C0.793715 220.87 0.578315 235.884 4.97268 251.363C9.71069 268.052 19.7128 284.8 34.7015 301.141L33.9517 301.828Z" fill="#E5ECFF"/>
<path d="M131.343 98.4552L130.5 97.8868C130.602 97.7351 140.922 82.5439 158.496 66.812C168.821 57.5691 179.597 49.9461 190.524 44.1543C204.196 36.9078 218.145 32.5237 231.983 31.1238C265.811 27.7014 299.184 41.8876 331.173 73.2874L330.46 74.0133C298.699 42.837 265.603 28.7467 232.091 32.1351C218.388 33.5204 204.569 37.8634 191.018 45.0437C180.165 50.7941 169.459 58.3664 159.196 67.5505C141.708 83.2003 131.445 98.3045 131.343 98.4552Z" fill="#E5ECFF"/>
<path d="M551.618 301.096L550.777 300.523C564.668 280.127 573.555 258.464 577.192 236.136C580.535 215.609 579.187 194.874 573.292 176.172C563.351 144.635 541.145 120.293 512.367 109.387L512.728 108.436C541.799 119.453 564.227 144.03 574.262 175.867C580.204 194.719 581.565 215.617 578.196 236.299C574.535 258.776 565.593 280.576 551.618 301.096Z" fill="#E5ECFF"/>
<path d="M551.194 158.412C532.019 110.105 490.335 76.8993 437.7 91.5455C422.458 95.7868 400.355 109.454 384.871 112.703C343.308 121.424 323.932 83.7458 294.545 63.929C257.304 38.8158 207.264 33.5768 168.658 58.9724C154.002 68.6133 141.671 81.7612 132.786 96.8731C130.53 100.71 111.998 143.147 117.717 144.809C70.5937 131.118 30.5281 163.882 20.659 209.294C14.8203 236.161 27.2088 277.585 47.5513 300.725H525.427C548.482 270.974 571.094 208.545 551.194 158.412Z" fill="#E5ECFF"/>
<path d="M415.008 44.2686C415.008 66.5214 402.196 76.7006 379.944 76.7006C357.692 76.7006 334.883 51.2599 334.883 29.0075C334.881 -22.0587 415.008 1.49769 415.008 44.2686Z" fill="#E5ECFF"/>
<path d="M99.6089 74.5494C117.997 97.6897 57.077 139.959 51.615 100.882C49.408 85.0921 63.2637 71.6348 79.1968 69.6899C89.9484 68.3774 96.4115 70.5262 99.6089 74.5494Z" fill="#E5ECFF"/>
<path d="M439.533 300.571H276.194C276.194 300.571 233.364 268.084 238.47 227.959C239.802 217.391 244.46 206.304 254.103 195.126C286.772 157.268 317.276 142.825 327.864 105.639C328.576 103.116 329.207 100.482 329.736 97.7357L330.702 97.7052L373.715 96.4439L374.743 96.4134C374.743 96.4134 375.739 99.8208 378.445 105.547C383.348 115.932 393.834 133.976 414.064 153.21C422.059 160.808 431.579 168.589 442.869 176.156C490.033 207.758 494.539 289.108 439.533 300.571Z" fill="#FF9064"/>
<path d="M389.35 52.0876L373.046 98.3262L331.141 98.7838L312.771 54.1624C311.561 51.2229 314.399 48.2325 317.176 49.5345C317.176 49.5345 317.176 49.5345 317.186 49.5447L331.741 56.3492L332.29 55.8507L344.445 44.7234C345.329 43.9097 346.489 43.6858 347.526 44.0012C348.177 44.1843 348.767 44.5912 349.225 45.1812L354.046 51.579L354.117 51.4875C354.117 51.4875 354.128 51.4874 354.128 51.4773L364.756 38.8649C366.526 36.7595 369.791 37.5935 370.462 40.3296L372.731 49.6466L385.689 47.3784C385.892 47.3377 386.085 47.3275 386.289 47.3275C388.516 47.3479 390.174 49.7482 389.35 52.0876Z" fill="#FF9064"/>
<path d="M327.255 105.675H378.469C381.918 105.675 384.74 102.853 384.74 99.4044V96.0623C384.74 92.6135 381.918 89.7917 378.469 89.7917H327.255C323.806 89.7917 320.984 92.6135 320.984 96.0623V99.4044C320.984 102.853 323.806 105.675 327.255 105.675Z" fill="#B25834"/>
<path d="M344.279 187.647C348.429 193.585 353.367 198.811 359.092 203.324C364.816 207.837 372.139 212.16 381.06 216.293L371.972 226.626C365.198 223.11 359.378 219.334 354.512 215.296C349.694 211.258 345.543 206.673 342.061 201.543C338.578 196.412 335.549 190.426 332.973 183.585L339.699 179.238C347.046 179.238 352.914 178.193 357.303 176.103C361.739 174.013 364.649 171.044 366.033 167.196H325.602L321.595 157.647H366.462C365.794 154.417 364.363 151.78 362.169 149.737C359.974 147.695 357.136 146.507 353.653 146.174H324.243L320.164 136.626H394.298L397.733 146.174H370.326C374.667 148.977 377.41 152.801 378.555 157.647H395.658L399.164 167.196H378.77C378.054 171.329 376.266 174.939 373.403 178.027C370.589 181.067 366.701 183.443 361.739 185.153C356.826 186.816 351.006 187.647 344.279 187.647Z" fill="#FFB193"/>
<path d="M330.664 66.0526C330.837 66.317 330.888 66.4392 330.786 66.3884C330.715 66.3577 330.674 66.2356 330.664 66.0526Z" fill="#FF9064"/>
<path opacity="0.6" d="M330.393 70.2606C326.615 65.5221 317.495 49.9095 317.188 49.5451L331.742 56.3496C331.742 56.3496 333.19 63.1407 332.597 66.1073C332.373 67.2269 331.105 71.1532 330.393 70.2606Z" fill="#B25834"/>
<path opacity="0.3" d="M439.533 300.573H276.194C276.194 300.573 233.364 268.086 238.47 227.96C255.811 251.364 296.15 285.601 380.083 274.819C379.127 271.218 378.628 267.374 378.628 263.346C378.628 250.886 385.891 240.583 394.943 233.005C402.47 226.709 413.353 219.549 413.465 208.553C413.475 208.452 413.994 161.013 414.065 153.211C422.059 160.809 431.58 168.59 442.869 176.158C490.033 207.76 494.539 289.11 439.533 300.573Z" fill="#B25834"/>
<path opacity="0.6" d="M354.121 51.4865C351.68 56.3078 345.943 72.6801 345.058 71.2765C344.031 69.6186 347.001 48.4758 347.53 44.0005C348.181 44.1835 348.771 44.5905 349.228 45.1804L354.049 51.5782L354.121 51.4865Z" fill="#B25834"/>
<path opacity="0.6" d="M380.742 48.3032C376.023 55.6672 374.748 64.9806 373.284 65.3876C370.995 66.0182 372.734 49.6423 372.734 49.6423C372.734 49.6423 379.748 48.4037 380.742 48.3032Z" fill="#B25834"/>
<path d="M499.66 152.135H427.812V300.727H499.66V152.135Z" fill="#FBC343"/>
<path d="M499.149 171.302H467.109V172.319H499.149V171.302Z" fill="#E49B31"/>
<path d="M499.656 217.071H467.617V218.088H499.656V217.071Z" fill="#E49B31"/>
<path d="M499.657 244.025H445.75V245.042H499.657V244.025Z" fill="#E49B31"/>
<path d="M459.992 193.167H427.953V194.184H459.992V193.167Z" fill="#E49B31"/>
<path d="M485.42 271.484H427.953V272.501H485.42V271.484Z" fill="#E49B31"/>
<path d="M461.781 289.553C476.676 274.659 476.676 250.51 461.781 235.615C446.887 220.721 422.738 220.721 407.844 235.615C392.949 250.51 392.949 274.659 407.844 289.553C422.738 304.448 446.887 304.448 461.781 289.553Z" fill="#E49B31"/>
<path d="M453.985 289.553C468.879 274.659 468.879 250.51 453.985 235.615C439.09 220.72 414.941 220.72 400.047 235.615C385.152 250.51 385.152 274.659 400.047 289.553C414.941 304.448 439.09 304.448 453.985 289.553Z" fill="#FBC343"/>
<path d="M427.018 232.848C443.44 232.848 456.752 246.161 456.752 262.582C456.752 279.004 443.44 292.317 427.018 292.317C410.596 292.317 397.283 279.004 397.283 262.582C397.283 246.161 410.596 232.848 427.018 232.848ZM427.018 231.322C418.668 231.322 410.818 234.574 404.914 240.478C399.009 246.382 395.758 254.233 395.758 262.582C395.758 270.932 399.009 278.783 404.914 284.687C410.818 290.591 418.668 293.843 427.018 293.843C435.368 293.843 443.218 290.591 449.122 284.687C455.026 278.783 458.278 270.932 458.278 262.582C458.278 254.233 455.026 246.382 449.122 240.478C443.218 234.574 435.368 231.322 427.018 231.322Z" fill="#E49B31"/>
<path d="M435.693 253.485H443.281V257.4H435.399C435.046 260.129 434.262 262.265 433.046 263.807C431.869 265.349 430.144 266.457 427.869 267.129C425.634 267.801 422.654 268.137 418.928 268.137V272.824C418.928 278.163 421.242 280.832 425.869 280.832C430.419 280.832 432.693 278.262 432.693 273.121H437.634C437.595 277.075 436.556 280.061 434.517 282.078C432.477 284.095 429.575 285.104 425.811 285.104C421.928 285.104 418.968 284.016 416.928 281.841C414.928 279.666 413.928 276.621 413.928 272.705V264.341C418.399 264.341 421.693 264.202 423.811 263.926C425.968 263.609 427.536 262.976 428.517 262.027C429.497 261.039 430.124 259.496 430.399 257.4H411.281V253.485H430.634V247.078H411.281V243.104H443.281V247.078H435.693V253.485Z" fill="white"/>
<path d="M176.747 150.777L172.15 162.474L139.683 152.72L113.828 144.949L121.273 123.569C121.273 123.569 126.094 126.356 133.092 130.181C145.786 137.128 165.62 147.482 176.747 150.777Z" fill="#97A9FF"/>
<path d="M139.683 152.72L113.828 144.949L121.273 123.569C121.273 123.569 126.094 126.356 133.092 130.181C135.157 134.89 137.944 142.59 139.683 152.72Z" fill="#97A9FF"/>
<path d="M465.586 126.538C465.586 126.538 511.406 118.255 518.086 126.757C523.837 134.077 526.974 142.18 521.745 181.652C509.707 151.539 490.527 133.975 465.586 126.538Z" fill="#1F3C88"/>
<path d="M527.118 209.946C527.118 209.946 519.32 220.456 500.164 217.066L508.81 202.826L527.118 209.946Z" fill="#1F3C88"/>
<path d="M505.609 205.791L507.499 235.323L540.98 233.043L523.539 219.83L521.861 203.826L505.609 205.791Z" fill="#102048"/>
<path d="M527.115 209.944C512.112 209.944 500.161 217.064 500.161 217.064L495.33 155.019C495.33 155.019 458.714 152.985 445.237 152.222C431.76 151.459 437.863 117.64 437.863 117.64L462.355 121.942L475.496 124.251L501.371 128.971C510.058 130.557 516.771 137.525 518.022 146.272L527.115 209.944Z" fill="#3A6BEA"/>
<path d="M516.001 211.588C515.798 211.588 515.629 211.428 515.62 211.224C514.141 178.79 506.49 148.822 503.657 144.855C500.4 140.296 487.646 139.591 471.499 138.698C466.19 138.404 460.7 138.1 454.833 137.639C451.94 137.411 450.025 134.102 449.141 127.803C448.499 123.229 448.657 118.657 448.659 118.612C448.666 118.401 448.851 118.242 449.054 118.244C449.265 118.252 449.429 118.429 449.421 118.64C449.42 118.685 449.264 123.197 449.898 127.706C450.467 131.756 451.796 136.634 454.893 136.878C460.751 137.339 466.236 137.643 471.541 137.936C488.532 138.876 500.808 139.555 504.277 144.412C507.59 149.05 514.979 180.438 516.381 211.189C516.391 211.399 516.228 211.578 516.018 211.587C516.012 211.587 516.006 211.588 516.001 211.588Z" fill="#1F3C88"/>
<path opacity="0.3" d="M501.373 128.971C467.757 138.176 458.461 123.825 458.461 123.825L462.356 121.943L475.498 124.252L501.373 128.971Z" fill="#102048"/>
<path d="M499.483 210.323C499.347 210.323 499.215 210.25 499.146 210.121C499.047 209.936 499.118 209.705 499.303 209.605C499.431 209.537 512.275 202.784 526.107 203.118C526.317 203.124 526.484 203.298 526.479 203.509C526.474 203.716 526.304 203.881 526.098 203.881C526.095 203.881 526.091 203.881 526.089 203.881C512.454 203.541 499.789 210.211 499.663 210.278C499.605 210.309 499.544 210.323 499.483 210.323Z" fill="#1F3C88"/>
<path d="M523.172 219.456L517.773 224.829L518.491 225.55L523.89 220.177L523.172 219.456Z" fill="white"/>
<path d="M469.066 58.7263L468.547 60.8928L466.472 69.5384L464.824 76.4446L451.938 71.8676L460.166 55.5936L469.066 58.7263Z" fill="#FD9292"/>
<path d="M468.544 60.8933L466.824 68.1174C462.034 63.6726 463.741 58.9951 463.741 58.9951L468.544 60.8933Z" fill="#102048" fill-opacity="0.2"/>
<path d="M480.084 52.0352C480.084 52.0352 477.372 65.5969 472.54 65.4274C467.709 65.2579 461.945 57.7141 461.945 57.7141L465.929 46.3563L475.761 47.204L480.084 52.0352Z" fill="#FD9292"/>
<path d="M479.58 52.3877C480.506 53.1334 481.242 53.7507 481.771 54.0423C486.029 56.3891 485.294 49.6935 484.903 47.4426C483.648 40.2056 474.902 37.1806 468.603 36.3912C467.859 36.298 467.095 36.2351 466.367 36.4144C464.444 36.8882 463.929 39.2037 463.236 40.7783C462.057 43.4545 458.865 42.6655 456.651 43.7278C455.555 44.2532 454.653 45.4751 455.003 46.6382C455.272 47.5322 456.189 48.0674 456.441 48.9537C456.895 50.5504 454.934 52.2062 454.556 53.7474C453.697 57.2449 457.125 60.2438 460.434 60.1437C462.471 60.0821 464.424 59.0578 465.78 57.5365C466.693 56.5128 467.338 55.2814 467.748 53.9769C468.153 52.6847 469.248 53.776 469.76 52.4398C472.708 44.7421 476.954 50.2721 479.58 52.3877Z" fill="url(#paint0_linear_2224_534)"/>
<path d="M453.498 33.8963C451.738 34.0119 449.761 34.5909 449.01 36.1875C448.533 37.2031 448.657 38.4459 448.073 39.4047C447.067 41.0565 444.694 40.9677 442.768 40.7884C441.359 40.6573 439.918 40.5898 438.547 40.9389C437.175 41.2879 435.865 42.1099 435.225 43.372C434.584 44.6341 434.777 46.3534 435.879 47.2414C436.367 47.6349 437.021 47.8808 437.299 48.4425C437.615 49.0781 437.304 49.8588 436.84 50.3955C436.376 50.9321 435.767 51.3335 435.333 51.8948C434.529 52.9347 434.47 54.4896 435.192 55.5876C435.915 56.6856 437.366 57.2463 438.639 56.9192C440.2 56.5183 441.38 54.9661 442.991 54.9378C444.502 54.9115 445.755 56.2597 447.265 56.3191C448.566 56.3701 449.703 55.4519 450.541 54.4558C451.38 53.4597 452.087 52.3106 453.173 51.5924C455.269 50.2062 458.374 50.6901 460.098 48.8617C461.565 47.3063 461.619 45.0448 463.25 43.5465C464.701 42.2134 466.338 41.1065 465.498 38.8794C463.966 34.8212 457.205 33.6529 453.498 33.8963Z" fill="url(#paint1_linear_2224_534)"/>
<path d="M469.937 52.4511C470.299 54.049 469.575 55.5751 468.319 55.8596C467.064 56.1441 465.752 55.0794 465.39 53.4815C465.028 51.8836 465.752 50.3575 467.008 50.073C468.263 49.7887 469.575 50.8532 469.937 52.4511Z" fill="#FD9292"/>
<path d="M467.873 54.8761C467.858 54.8761 467.843 54.8748 467.828 54.8721C467.689 54.8474 467.597 54.7154 467.622 54.577C467.791 53.6285 467.81 52.3894 466.938 51.8739C466.817 51.8025 466.776 51.6467 466.848 51.5257C466.92 51.4047 467.075 51.3649 467.196 51.4362C468.085 51.9619 468.406 53.0788 468.123 54.6665C468.101 54.7897 467.994 54.8761 467.873 54.8761Z" fill="#102048"/>
<path d="M497.37 108.608C495.725 107.528 492.644 107.239 489.559 107.277L489.398 114.383L494.065 113.821C494.065 113.821 504.999 120.686 505.889 120.178C506.779 119.669 501.439 111.278 497.37 108.608Z" fill="#E28B6D"/>
<path d="M480.458 108.103C473.211 77.4617 463.93 73.9017 463.93 73.9017L469.778 116.748L489.396 114.386L489.556 107.28C485.012 107.336 480.458 108.103 480.458 108.103Z" fill="#004370"/>
<path d="M475.505 124.249L460.828 123.212L448.633 122.357L436.559 121.503C434.251 121.34 432.593 119.204 433.01 116.926C435.512 103.286 444.422 62.0926 459.739 69.3244C478.048 77.9698 475.505 124.249 475.505 124.249Z" fill="#0061A2"/>
<path opacity="0.6" d="M465.709 120.945L460.827 123.213L448.631 122.359C444.451 109.756 447.279 88.9052 447.279 88.9052L465.709 120.945Z" fill="#102048"/>
<path d="M467.446 113.145L461.259 85.8525L447.273 88.9038C449.816 116.112 454.902 126.283 465.073 128.572C467.773 129.179 475.32 126.713 482.102 124.34L483.107 111.732C476.375 112.284 467.446 113.145 467.446 113.145Z" fill="#0061A2"/>
<path d="M489.992 111.279C488.961 111.279 486.277 111.47 483.107 111.73L482.102 124.339C488.775 122.004 494.739 119.585 494.739 119.585C494.739 119.585 506.944 123.654 507.114 121.28C507.283 118.907 493.213 111.279 489.992 111.279Z" fill="#F9B384"/>
<path d="M515.546 121.706H482.133V125.312H515.546V121.706Z" fill="white"/>
<path d="M515.554 125.31H511.57L526.191 89.1694C526.473 88.472 527.15 88.0154 527.902 88.0154C529.212 88.0154 530.105 89.3404 529.614 90.5544L515.554 125.31Z" fill="#102048"/>
<path d="M470.902 118.69C468.072 118.69 466.19 118.121 465.288 116.986C462.059 112.927 460.941 95.5388 460.2 84.0324C459.896 79.2989 459.655 75.5602 459.364 74.1045C458.417 69.3704 454.804 69.1994 454.767 69.1981C454.557 69.1915 454.392 69.0153 454.399 68.8047C454.406 68.5941 454.591 68.4326 454.792 68.4357C454.834 68.4372 459.048 68.6341 460.112 73.9549C460.413 75.4602 460.655 79.2215 460.962 83.9834C461.696 95.3946 462.805 112.64 465.885 116.512C468.137 119.342 478.474 117.194 482.266 116.128C482.469 116.071 482.679 116.189 482.737 116.391C482.794 116.594 482.675 116.805 482.473 116.862C482.438 116.871 478.933 117.851 475.118 118.368C473.536 118.583 472.13 118.69 470.902 118.69Z" fill="#3A6BEA"/>
<path d="M189.136 158.871C187.386 160.203 185.382 161.302 183.175 162.085C172.587 165.838 161.195 160.935 157.717 151.141C155.144 143.868 157.666 135.934 163.474 130.798C165.488 129.018 167.888 127.574 170.614 126.607C181.202 122.854 192.604 127.757 196.072 137.552C198.819 145.302 195.777 153.806 189.136 158.871Z" fill="#7D69ED"/>
<path opacity="0.4" d="M189.136 158.869C187.386 160.202 185.382 161.3 183.175 162.084C172.587 165.837 161.195 160.934 157.717 151.139C155.144 143.867 157.666 135.933 163.474 130.797C163.25 139.595 166.373 154.567 189.136 158.869Z" fill="#5B4DAD"/>
<path d="M306.959 125.459C303.039 132.136 297.187 139.036 292.703 149.896C291.185 153.568 289.828 157.7 288.749 162.427C288.244 164.631 285.806 165.768 283.786 164.741C271.373 158.394 262.34 150.745 257.875 141.35C255.362 136.077 256.355 129.813 260.202 125.412C266.286 118.447 274.315 114.098 283.015 112.664C289.439 111.598 296.238 112.132 302.885 114.389C307.424 115.938 309.391 121.331 306.959 125.459Z" fill="#5B4DAD"/>
<path d="M330.482 195.777C330.482 202.327 329.353 208.684 327.288 214.746C326.464 217.137 325.498 219.486 324.399 221.785C319.934 231.122 313.262 239.585 305.166 246.796C302.48 249.176 299.643 251.434 296.683 253.529C282.209 263.782 264.745 270.363 247.729 271.594C245.806 271.736 243.894 271.807 241.992 271.807C235.076 271.807 228.373 271.37 221.965 270.454C200.769 267.454 182.776 259.307 170.713 244.833C163.471 236.147 158.375 225.182 156.005 211.695C155.476 208.633 155.07 205.43 154.825 202.093C154.663 200.039 154.561 197.933 154.52 195.777C154.276 183.053 157.643 170.583 163.786 159.374C170.113 147.85 179.389 137.659 190.73 129.898C204.847 120.235 222.169 114.346 240.975 114.346C245.827 114.346 250.607 114.743 255.276 115.495C268.712 117.642 281.233 122.737 292.045 129.918C303.151 137.272 312.458 146.823 319.13 157.625C326.342 169.271 330.482 182.381 330.482 195.777Z" fill="#7D69ED"/>
<path d="M349.915 186.442L348.522 202.37L347.983 208.564C347.505 214.067 342.796 218.532 336.683 219.244C332.472 219.722 328.393 220.597 324.396 221.787C317.256 223.872 310.411 226.924 303.688 230.412L304.684 225.367L318.273 156.956C318.558 157.179 318.842 157.403 319.127 157.627C326.522 163.374 334.862 169.507 344.769 176.21C348.319 178.61 350.261 182.475 349.915 186.442Z" fill="#7D69ED"/>
<path d="M304.18 167.122C306.568 166.648 307.987 163.658 307.349 160.444C306.711 157.23 304.258 155.008 301.87 155.482C299.482 155.956 298.064 158.946 298.702 162.16C299.34 165.374 301.793 167.596 304.18 167.122Z" fill="#102048"/>
<path d="M226.977 137.048C215.146 137.505 204.962 141.827 196.079 149.201C194.457 150.547 192.005 149.957 191.238 147.994L190.4 145.848C189.944 144.679 190.233 143.334 191.166 142.495C200.711 133.905 212.145 129.041 225.959 128.87C227.245 128.854 228.415 129.62 228.883 130.818L229.691 132.888C230.454 134.839 229.07 136.967 226.977 137.048Z" fill="#5B4DAD"/>
<path d="M228.251 140.609C216.419 141.066 206.235 145.388 197.352 152.762C195.731 154.108 193.278 153.518 192.512 151.555L191.673 149.409C191.217 148.24 191.507 146.895 192.439 146.056C201.984 137.466 213.419 132.602 227.232 132.431C228.519 132.415 229.688 133.18 230.156 134.379L230.965 136.449C231.727 138.4 230.344 140.528 228.251 140.609Z" fill="#102048"/>
<path d="M223 260.034L221.962 270.45L219.857 291.463C219.328 296.712 214.903 300.719 209.624 300.719H192.72C188.001 300.719 183.881 297.505 182.742 292.928L170.71 244.828L170.109 242.408L223 260.034Z" fill="#7D69ED"/>
<path d="M299.453 242.408L296.676 253.525L286.82 292.928C285.671 297.505 281.562 300.72 276.842 300.72H259.938C254.649 300.72 250.224 296.712 249.706 291.464L247.722 271.589L246.562 260.034L299.453 242.408Z" fill="#7D69ED"/>
<path opacity="0.4" d="M348.528 202.364L347.989 208.558C347.511 214.061 342.801 218.526 336.689 219.238C332.478 219.716 328.399 220.591 324.402 221.781C319.937 231.118 313.264 239.581 305.168 246.792C302.483 249.172 299.645 251.43 296.685 253.525L294.356 262.853L286.829 292.929C285.68 297.506 281.571 300.72 276.851 300.72H259.947C254.658 300.72 250.234 296.713 249.715 291.464L248.382 278.079L247.731 271.59C245.809 271.732 243.897 271.803 241.995 271.803C235.078 271.803 228.376 271.366 221.968 270.45L221.154 278.537L219.862 291.464C219.333 296.713 214.909 300.72 209.63 300.72H192.726C188.006 300.72 183.887 297.506 182.748 292.929L176.533 268.07L170.715 244.829C170.257 244.28 169.82 243.731 169.383 243.171C169.016 242.703 168.65 242.225 168.304 241.737C168.182 241.585 168.071 241.432 167.969 241.269C167.613 240.791 167.277 240.303 166.952 239.815C166.891 239.733 166.84 239.662 166.789 239.581C166.423 239.021 166.057 238.462 165.701 237.882C165.345 237.323 165.009 236.764 164.674 236.184C164.623 236.092 164.562 236.001 164.511 235.899C164.165 235.299 163.829 234.699 163.504 234.078C163.128 233.366 162.751 232.644 162.395 231.902C162.111 231.312 161.826 230.712 161.551 230.112C161.551 230.091 161.541 230.081 161.531 230.061C161.256 229.44 160.992 228.82 160.737 228.189C160.361 227.305 160.005 226.399 159.679 225.484C159.496 224.985 159.313 224.487 159.141 223.978C158.906 223.317 158.693 222.646 158.49 221.964C158.368 221.608 158.256 221.242 158.154 220.876C157.808 219.727 157.493 218.557 157.208 217.357C157.117 217.021 157.035 216.685 156.964 216.35C156.771 215.546 156.598 214.733 156.435 213.909C156.303 213.258 156.171 212.596 156.049 211.925C156.039 211.844 156.018 211.773 156.008 211.691C155.479 208.63 155.072 205.426 154.828 202.09C176.859 224.67 233.98 270.064 304.69 225.362C309.054 222.615 313.468 219.513 317.933 216.045C317.933 216.045 321.961 215.943 327.291 214.743C334.166 213.176 343.198 209.779 348.528 202.364Z" fill="#5B4DAD"/>
<path opacity="0.6" d="M221.964 270.452L221.15 278.538C202.292 276.992 186.466 271.988 176.529 268.072L170.711 244.831C182.774 259.304 200.767 267.452 221.964 270.452Z" fill="#5B4DAD"/>
<path opacity="0.6" d="M296.688 253.524L294.359 262.852C278.848 271.751 263.195 276.288 248.385 278.078L247.734 271.589C264.751 270.358 282.215 263.777 296.688 253.524Z" fill="#5B4DAD"/>
<path d="M299.498 119.699C295.578 126.376 289.726 133.276 285.242 144.136C283.724 147.808 282.367 151.94 281.288 156.667C280.783 158.871 278.345 160.008 276.325 158.981C263.912 152.634 254.879 144.985 250.414 135.59C247.901 130.317 248.894 124.053 252.741 119.652C258.825 112.687 266.855 108.338 275.554 106.904C281.979 105.838 288.777 106.372 295.425 108.629C299.963 110.178 301.93 115.571 299.498 119.699Z" fill="#7D69ED"/>
<path opacity="0.4" d="M285.242 144.135C283.724 147.807 282.367 151.939 281.288 156.666C280.783 158.87 278.345 160.007 276.325 158.98C263.912 152.633 254.879 144.984 250.414 135.589C247.901 130.316 248.894 124.052 252.741 119.651C258.825 112.686 266.855 108.337 275.554 106.903C269.297 112.987 260.829 122.979 264.392 129.769C268.315 137.246 278.261 142.105 285.242 144.135Z" fill="#5B4DAD"/>
<path opacity="0.4" d="M297.334 201.472C302.671 201.472 306.997 196.064 306.997 189.394C306.997 182.723 302.671 177.315 297.334 177.315C291.998 177.315 287.672 182.723 287.672 189.394C287.672 196.064 291.998 201.472 297.334 201.472Z" fill="#5B4DAD"/>
<path d="M125.781 278.595L122.984 300.717L151.209 300.463L138.495 290.805L139.258 278.595H125.781Z" fill="#102048"/>
<path d="M65.5217 274.023L58.6562 300.718L85.1013 300.464L75.9907 291.612L79.9864 275.945L65.5217 274.023Z" fill="#102048"/>
<path d="M149.945 234.499L144.188 279.171C143.893 281.46 141.94 283.179 139.631 283.179H125.941C125.697 283.179 125.452 283.158 125.219 283.118C122.889 282.752 121.171 280.636 121.374 278.205L122.208 252.929L122.818 234.611C122.818 234.611 118.516 229.719 112.138 222.395C109.565 219.435 106.636 216.079 103.523 212.489C96.6069 204.524 89.6397 195.452 85.3983 187.121C83.4454 183.317 82.0722 179.666 81.5231 176.35C81.4113 175.668 81.3299 174.997 81.2891 174.346L92.3451 174.804L93.8199 174.865L105.71 175.353L106.036 175.363L116.207 185.199L143.282 213.973C148.47 219.466 150.911 227.003 149.945 234.499Z" fill="url(#paint2_linear_2224_534)"/>
<path d="M102.83 245.37L84.9085 278.997C84.0338 280.634 82.3148 281.641 80.4637 281.58L78.5618 281.529L63.9865 281.102C63.895 281.102 63.8035 281.092 63.712 281.082C63.7018 281.082 63.7018 281.082 63.7018 281.082C61.9522 280.858 60.8132 279.037 61.454 277.339L77.555 234.019L66.031 207.655C62.7559 198.776 63.9763 190.903 65.8073 185.523C67.3838 180.874 69.418 178.077 69.418 178.077L81.5218 176.348L92.344 174.802L93.7477 174.599L93.8189 174.863L96.9108 186.875L103.522 212.487L105.841 221.468C107.926 229.524 106.848 238.078 102.83 245.37Z" fill="url(#paint3_linear_2224_534)"/>
<path d="M116.211 185.199C116.211 185.199 107.809 186.338 96.9161 186.877C93.285 187.04 89.3691 187.152 85.4022 187.121C78.6893 187.08 71.8035 186.653 65.8125 185.524C67.389 180.876 69.4233 178.079 69.4233 178.079L81.5271 176.35C81.4152 175.668 81.3339 174.997 81.293 174.346L92.3491 174.804L93.7527 174.601L93.8239 174.865L105.714 175.353L116.211 185.199Z" fill="#102048"/>
<path d="M103.046 212.652L98.7656 200.172L106.683 198.261L106.921 199.25L100.09 200.899L104.008 212.322L103.046 212.652Z" fill="#102048"/>
<path d="M78.3183 276.489C68.4899 276.489 63.159 274.601 62.8828 274.501L63.2302 273.545C63.3134 273.575 71.7135 276.537 86.654 275.042L86.7553 276.055C83.6544 276.365 80.8377 276.489 78.3183 276.489Z" fill="#102048"/>
<path d="M133.16 277.689C126.288 277.689 121.255 276.572 121.18 276.555L121.405 275.563C121.516 275.588 132.629 278.05 144.326 275.562L144.538 276.556C140.546 277.406 136.619 277.689 133.16 277.689Z" fill="#102048"/>
<path d="M75.8352 291.134L69.7734 293.124L70.0908 294.091L76.1525 292.1L75.8352 291.134Z" fill="white"/>
<path d="M138.228 290.392L133.227 293.443L133.756 294.311L138.757 291.26L138.228 290.392Z" fill="white"/>
<path d="M122.21 252.93L122.82 234.612C122.82 234.612 118.518 229.719 112.141 222.396C116.301 222.772 122.454 226.912 126.126 233.34C129.162 238.649 128.16 249.614 127.292 251.225C126.499 252.696 124.521 253.144 122.21 252.93Z" fill="#102048"/>
<path d="M127.314 113.317L127.009 114.771L124.761 125.35L123.114 133.151L110.664 128.066L119.31 106.319L127.314 113.317Z" fill="#FFCBC3"/>
<path d="M127 114.772L124.753 125.35C121.193 121.169 120.867 114.507 120.867 114.507L127 114.772Z" fill="#102048" fill-opacity="0.2"/>
<path d="M134.472 102.199C134.472 102.199 133.305 119.378 127.529 118.715C121.754 118.051 116.304 112.098 116.304 112.098C115.444 107.625 116.336 102.847 118.286 97.8842L130.922 98.1679L134.472 102.199Z" fill="#FFCBC3"/>
<path d="M124.747 103.426C125.5 104.016 126.551 104.236 127.499 104C128.447 103.765 129.268 103.08 129.65 102.207C130.911 103.125 132.464 103.704 134.051 103.689C135.638 103.675 137.246 103.033 138.28 101.856C139.314 100.679 139.703 98.9626 139.131 97.5368C138.868 96.88 138.364 96.3908 137.748 96.0341C137.089 95.6525 136.21 95.7421 135.796 95.0154C135.381 94.2885 135.976 93.584 135.793 92.8286C135.637 92.1861 135.313 91.5887 134.801 91.1479C134.151 90.5878 133.29 90.5058 132.451 90.5832C132.007 90.6241 131.329 90.88 130.918 90.6204C130.369 90.2726 130.596 89.3834 130.082 88.9218C129.502 88.4022 128.569 88.2918 127.867 88.6602C127.367 88.9218 126.993 89.3896 126.465 89.5886C125.645 89.8972 124.758 89.4759 123.952 89.1539C123.146 88.8318 122.087 88.6537 121.496 89.2867C121.058 89.7559 121.088 90.4587 121.089 91.0873C121.09 91.7159 120.968 92.4528 120.396 92.7562C119.894 93.0218 119.266 92.8217 118.797 92.5165C118.327 92.2112 117.921 91.802 117.394 91.6017C116.226 91.1583 114.733 92.1183 114.695 93.3372C114.665 94.3047 115.39 95.2406 115.113 96.1734C114.83 97.1242 113.674 97.5316 112.664 97.676C111.655 97.8204 110.526 97.8935 109.821 98.6144C109.049 99.4055 109.21 100.852 110.137 101.446C110.554 101.712 111.061 101.81 111.525 101.991C111.989 102.173 112.451 102.491 112.554 102.966C112.688 103.584 112.149 104.172 111.559 104.453C110.969 104.735 110.297 104.835 109.728 105.156C108.403 105.901 108.07 107.889 109.089 108.975C109.603 109.523 110.272 109.728 111.026 109.61C111.567 109.525 112.154 109.06 112.717 109.186C113.732 109.411 113.287 110.767 113.782 111.417C114.259 112.044 114.954 112.207 115.703 112.006C116.35 111.831 116.918 111.446 117.425 111.017C118.976 109.71 120.08 107.934 120.58 106.013C120.692 105.58 120.656 105.184 121.122 105.04C121.489 104.927 122.087 105.112 122.507 105.024C123.438 104.828 124.304 104.255 124.747 103.426Z" fill="#2A2A6A"/>
<path d="M122.227 109.379C123.641 108.922 124.31 107.078 123.722 105.261C123.134 103.444 121.512 102.341 120.098 102.798C118.685 103.256 118.016 105.099 118.604 106.917C119.191 108.734 120.814 109.836 122.227 109.379Z" fill="#FFCBC3"/>
<path d="M121.755 107.825C121.732 107.825 121.709 107.822 121.686 107.815C121.551 107.778 121.472 107.638 121.509 107.503C121.527 107.438 121.885 106.005 120.283 104.617C120.177 104.525 120.166 104.364 120.257 104.258C120.349 104.152 120.51 104.14 120.616 104.232C122.474 105.843 122.02 107.566 122 107.639C121.968 107.751 121.866 107.825 121.755 107.825Z" fill="#102048"/>
<path d="M128.822 135.36C128.629 140.944 127.835 148.664 125.526 158.164C124.163 163.819 122.261 170.095 119.637 176.93C118.61 179.605 117.471 182.361 116.209 185.199C116.209 185.199 82.3088 175.028 69.4219 178.079C69.4219 178.079 85.3297 120.916 116.423 122.005C123.512 122.259 129.056 128.27 128.822 135.36Z" fill="#97A9FF"/>
<path d="M125.521 158.165C124.158 163.82 122.256 170.096 119.632 176.931C109.522 166.282 111.627 141.8 111.627 141.8L125.521 158.165Z" fill="#97A9FF"/>
<path d="M121.805 124.168L105.531 138.577C113.453 157.024 129.376 170.71 147.379 183.159L152.626 168.877C137.445 152.444 133.502 134.933 121.805 124.168Z" fill="#97A9FF"/>
<path d="M161.877 177.086L152.621 168.877L147.375 183.159L155.249 188.745C157.297 190.197 160.024 190.249 162.12 188.866C167.57 185.268 175.708 182.483 177.488 177.143C178.308 174.683 161.877 177.086 161.877 177.086Z" fill="#E28B6D"/>
<path d="M579.757 300.212H0V301.229H579.757V300.212Z" fill="#102048"/>
<defs>
<linearGradient id="paint0_linear_2224_534" x1="451.524" y1="45.1132" x2="477.802" y2="59.9855" gradientUnits="userSpaceOnUse">
<stop stop-color="#263681"/>
<stop offset="0.9959" stop-color="#1A1248"/>
</linearGradient>
<linearGradient id="paint1_linear_2224_534" x1="431.766" y1="42.4201" x2="457.761" y2="57.6999" gradientUnits="userSpaceOnUse">
<stop stop-color="#263681"/>
<stop offset="0.9959" stop-color="#1A1248"/>
</linearGradient>
<linearGradient id="paint2_linear_2224_534" x1="75.3327" y1="220.916" x2="150.981" y2="261.985" gradientUnits="userSpaceOnUse">
<stop stop-color="#263681"/>
<stop offset="0.9959" stop-color="#1A1248"/>
</linearGradient>
<linearGradient id="paint3_linear_2224_534" x1="57.3287" y1="220.378" x2="114.541" y2="241.304" gradientUnits="userSpaceOnUse">
<stop stop-color="#263681"/>
<stop offset="0.9959" stop-color="#1A1248"/>
</linearGradient>
</defs>
</svg>
