<svg width="58" height="52" viewBox="0 0 58 52" fill="none" xmlns="http://www.w3.org/2000/svg">
<path d="M29 0C13.05 0 0 10.4 0 23.1111C0 29.1778 2.9 34.9556 8.12 39C8.12 40.7333 6.96 45.3556 0 52C0 52 10.15 52 18.85 44.7778C22.04 45.6444 25.52 46.2222 29 46.2222C44.95 46.2222 58 35.8222 58 23.1111C58 10.4 44.95 0 29 0ZM31.9 34.6667H26.1V28.8889H31.9V34.6667ZM37.12 20.2222C36.25 21.3778 35.09 21.9556 33.93 22.5333C33.06 23.1111 32.77 23.4 32.48 23.9778C31.9 24.5556 31.9 25.1333 31.9 26H26.1C26.1 24.5556 26.39 23.6889 26.97 22.8222C27.55 22.2444 28.71 21.3778 30.16 20.5111C31.03 20.2222 31.61 19.6444 31.9 19.0667C32.19 18.4889 32.48 17.6222 32.48 17.0444C32.48 16.1778 32.19 15.6 31.61 15.0222C31.03 14.4444 30.16 14.1556 29.29 14.1556C28.42 14.1556 27.84 14.4444 27.26 14.7333C26.68 15.0222 26.39 15.6 26.39 16.4667H20.59C20.88 14.4444 21.75 12.7111 23.2 11.5556C24.65 10.4 26.68 10.1111 29.29 10.1111C31.9 10.1111 34.22 10.6889 35.67 11.8444C37.12 13 37.99 14.7333 37.99 16.7556C38.28 17.9111 37.99 19.0667 37.12 20.2222Z" fill="url(#paint0_linear_2224_533)"/>
<defs>
<linearGradient id="paint0_linear_2224_533" x1="29" y1="0" x2="29" y2="70.4" gradientUnits="userSpaceOnUse">
<stop stop-color="#0087E2"/>
<stop offset="1" stop-color="#00558E"/>
</linearGradient>
</defs>
</svg>
